# xmcd
#
# Track frame offsets:
#	150
#	16125
#	29100
#	41250
#	52500
#	69150
#	81450
#	96825
#
# Disc length: 1492 seconds
#
# Revision: 0
# Processed by: cddbd v1.5.2PL0 Copyright (c) Steve Scherf et al.
# Submitted via: audiograbber 1.83.01
#
DISCID=5705d208
DTITLE=Karaoke - DKK USA-25
DYEAR=1994
DGENRE=Country
TTITLE0=Cyrus, Billy Ray - Achy Breaky Heart
TTITLE1=Diffie, Joe - If The Devil Danced (In Empty Pockets)
TTITLE2=Tritt, Travis - Here's A Quarter (Call Someone Who Cares)
TTITLE3=Brooks, Garth - Against The Grain
TTITLE4=Shelton, Ricky Van - I Am A Simple Man
TTITLE5=Travis, Randy - Better Class Of Losers
TTITLE6=Dean, Billy - Somewhere In My Broken Heart
TTITLE7=Alabama - Song Of The South
EXTD=
EXTT0=
EXTT1=
EXTT2=
EXTT3=
EXTT4=
EXTT5=
EXTT6=
EXTT7=
PLAYORDER=
